<?xml version="1.0" standalone="no"?>
<!DOCTYPE svg PUBLIC "-//W3C//DTD SVG 20010904//EN"
 "http://www.w3.org/TR/2001/REC-SVG-20010904/DTD/svg10.dtd">
<svg version="1.0" xmlns="http://www.w3.org/2000/svg"
 width="640.000000pt" height="424.000000pt" viewBox="0 0 640.000000 424.000000"
 preserveAspectRatio="xMidYMid meet">
<metadata>
Created by potrace 1.16, written by Peter Selinger 2001-2019
</metadata>
<g transform="translate(0.000000,424.000000) scale(0.100000,-0.100000)"
fill="#000000" stroke="none">
<path d="M775 4034 c-67 -23 -126 -87 -152 -164 -16 -45 -19 -3085 -3 -3095 6
-3 10 -15 10 -26 0 -11 6 -26 13 -33 6 -7 27 -30 45 -49 58 -66 100 -80 250
-85 l132 -5 0 67 0 66 -112 1 c-131 1 -137 2 -170 23 -56 37 -53 -57 -53 1590
0 1505 0 1521 20 1548 11 15 25 28 32 28 6 0 13 6 15 13 4 9 488 13 2369 15
1300 1 2378 0 2394 -3 17 -3 48 -21 70 -39 l40 -34 3 -1522 c2 -1492 2 -1523
-17 -1554 -17 -27 -70 -68 -86 -66 -3 0 -57 0 -120 0 l-115 0 0 -65 0 -65 102
0 c99 0 206 20 236 44 26 21 55 52 81 85 l26 34 3 1556 c3 1710 7 1599 -57
1668 -16 18 -49 43 -73 55 l-43 23 -2400 2 c-2064 1 -2406 -1 -2440 -13z"/>
<path d="M4495 2909 c-74 -20 -144 -112 -143 -189 2 -120 119 -224 230 -205
72 13 146 91 163 173 15 71 -50 182 -124 212 -39 16 -87 19 -126 9z"/>
<path d="M1741 2811 c-13 -4 -34 -19 -45 -34 -19 -26 -21 -44 -24 -193 l-3
-164 -147 -1 c-171 -2 -171 -2 -198 -12 -21 -8 -54 -65 -54 -95 0 -18 56 -92
68 -91 4 1 80 1 169 0 l162 -1 3 -169 3 -170 30 -31 c24 -25 36 -30 67 -28 21
1 38 5 38 9 0 4 9 9 19 12 28 7 41 85 41 242 l0 135 168 0 c185 1 192 3 217
63 14 33 13 40 -1 71 -17 34 -51 59 -82 61 -10 1 -81 2 -158 3 l-142 2 -3 158
c-4 150 -5 161 -29 195 -14 20 -29 37 -35 38 -5 0 -17 2 -25 3 -8 2 -26 0 -39
-3z"/>
<path d="M4085 2506 c-22 -8 -57 -33 -77 -56 -85 -95 -52 -262 64 -316 43 -19
145 -15 174 7 103 83 127 162 79 263 -45 95 -143 137 -240 102z"/>
<path d="M4875 2502 c-22 -9 -50 -25 -62 -37 -33 -31 -66 -102 -66 -143 0 -62
51 -144 113 -184 37 -23 137 -21 172 3 14 11 29 19 33 19 29 0 78 103 78 162
-1 69 -48 143 -112 178 -36 19 -113 20 -156 2z"/>
<path d="M2901 2389 c-34 -34 -45 -61 -37 -92 8 -30 47 -72 71 -74 32 -4 428
-3 450 2 11 2 23 4 27 4 14 2 38 61 38 94 0 27 -8 42 -34 65 l-35 30 -225 0
-226 0 -29 -29z"/>
<path d="M4465 2102 c-95 -49 -139 -175 -93 -265 20 -40 52 -77 67 -77 5 0 14
-7 21 -15 7 -8 16 -13 20 -10 5 3 11 1 15 -5 12 -19 89 -11 142 17 45 22 57
35 83 86 35 69 36 80 14 143 -19 55 -52 104 -71 104 -7 0 -13 4 -13 8 0 30
-136 40 -185 14z"/>
<path d="M4990 1013 c-109 -41 -151 -201 -86 -320 16 -29 68 -93 116 -142 67
-68 89 -99 94 -126 18 -96 -41 -149 -99 -90 -19 18 -25 35 -25 70 l0 45 -61 0
-60 0 4 -74 c2 -43 10 -82 17 -92 8 -9 19 -25 25 -37 5 -11 17 -23 25 -27 8
-4 24 -11 35 -17 11 -5 46 -11 78 -12 77 -3 130 21 166 75 26 38 28 47 26 130
-2 107 -16 135 -131 251 -40 41 -74 77 -74 80 0 2 -7 11 -15 19 -14 15 -16 22
-18 77 -1 39 13 65 39 71 52 13 84 -17 84 -80 0 -23 3 -24 60 -24 l60 0 -3 59
c-2 36 -9 67 -18 78 -9 10 -18 25 -21 33 -11 29 -86 60 -146 59 -32 0 -64 -3
-72 -6z"/>
<path d="M1180 605 l0 -405 60 0 60 0 0 232 c0 127 3 228 7 224 4 -3 8 -14 9
-24 1 -9 4 -37 8 -62 3 -25 8 -60 11 -78 2 -18 7 -37 10 -42 3 -6 8 -37 10
-70 2 -33 9 -75 15 -94 6 -18 10 -38 9 -42 -7 -40 0 -45 63 -42 62 3 62 3 70
38 7 33 12 67 23 162 2 24 8 57 13 73 5 17 10 53 11 81 1 28 6 64 11 80 5 19
9 -54 9 -203 l1 -233 70 0 70 0 0 405 0 405 -94 0 -94 0 -8 -37 c-4 -21 -8
-58 -9 -83 -1 -25 -5 -55 -9 -66 -4 -12 -9 -37 -11 -55 -2 -19 -7 -54 -10 -79
-4 -25 -8 -60 -10 -78 -2 -18 -7 -47 -11 -65 -4 -18 -8 -41 -10 -52 -1 -11 -3
-24 -4 -30 -2 -10 -26 124 -35 195 -2 19 -8 49 -13 66 -5 17 -8 42 -7 57 2 15
-3 48 -11 74 -8 27 -16 71 -17 98 l-2 50 -92 3 -93 3 0 -406z"/>
<path d="M1885 979 c-7 -31 -8 -39 -19 -120 -4 -25 -10 -59 -15 -77 -5 -17 -8
-44 -6 -59 1 -15 -1 -38 -6 -51 -9 -23 -13 -48 -25 -146 -3 -27 -10 -60 -15
-73 -5 -14 -7 -28 -4 -33 3 -5 0 -21 -6 -37 -6 -15 -12 -53 -14 -84 -2 -32 -6
-66 -10 -78 -6 -20 -3 -21 54 -21 41 0 61 4 62 13 1 6 3 19 3 27 1 8 5 34 10
57 l8 42 78 3 c72 3 78 2 78 -17 0 -11 3 -44 7 -72 l8 -53 63 0 c34 0 65 4 68
9 3 4 1 23 -4 42 -5 18 -12 51 -15 73 -3 23 -7 55 -10 71 -2 17 -6 44 -9 60
-2 17 -12 77 -20 134 -9 57 -19 107 -22 112 -2 5 -6 35 -8 68 -2 33 -7 64 -10
70 -4 5 -8 27 -11 48 -2 21 -7 57 -11 81 l-7 42 -93 0 -92 0 -7 -31z m102
-183 c-3 -8 0 -37 7 -64 8 -27 12 -61 11 -74 -2 -14 5 -58 15 -99 9 -41 15
-80 13 -86 -3 -8 -25 -13 -60 -13 l-54 0 5 46 c3 26 11 65 17 88 6 22 13 64
14 91 3 69 15 125 27 125 6 0 8 -6 5 -14z"/>
<path d="M2260 605 l0 -405 70 0 70 0 0 405 0 405 -70 0 -70 0 0 -405z"/>
<path d="M2480 605 l0 -405 65 0 66 0 -3 255 c-3 239 2 302 18 220 3 -19 6
-37 5 -40 -1 -3 5 -18 14 -35 8 -16 15 -41 15 -55 0 -15 5 -36 12 -48 6 -12
15 -40 19 -62 6 -33 29 -124 43 -170 2 -5 6 -22 11 -37 7 -27 9 -28 76 -28
l69 0 0 405 0 405 -60 0 -60 0 -1 -237 c-1 -217 -2 -234 -14 -188 -13 49 -28
104 -60 223 -9 31 -17 62 -19 67 -1 6 -7 28 -11 50 -5 22 -10 43 -11 48 -1 4
-2 14 -3 22 -1 12 -18 15 -86 15 l-85 0 0 -405z"/>
<path d="M3100 958 c0 -75 6 -81 79 -76 l61 3 0 -342 0 -343 65 0 65 0 0 343
0 342 65 -3 65 -4 0 66 0 66 -200 0 -200 0 0 -52z"/>
<path d="M3550 605 l0 -405 175 0 175 0 0 60 0 60 -110 0 -110 0 0 115 0 115
90 0 90 0 0 60 0 60 -90 0 -90 0 0 108 0 107 110 -3 110 -3 0 65 0 66 -175 0
-175 0 0 -405z"/>
<path d="M3970 606 l0 -406 65 0 65 0 0 160 0 160 45 0 c68 0 77 -21 77 -172
0 -67 2 -128 5 -135 4 -9 25 -13 68 -13 l63 0 1 129 c2 141 -10 192 -56 242
l-24 26 32 27 c17 15 29 29 26 32 -3 3 1 21 9 39 19 46 17 150 -4 202 -17 42
-55 95 -66 94 -3 -1 -7 -1 -8 0 -32 9 -64 13 -170 16 l-128 5 0 -406z m237
261 c13 -12 16 -36 15 -104 -1 -101 -9 -113 -79 -113 l-43 0 0 118 0 117 46
-1 c27 -1 52 -8 61 -17z"/>
<path d="M4430 669 c2 -371 3 -384 60 -438 34 -32 56 -39 125 -39 104 1 166
45 184 131 7 28 11 181 11 367 l0 320 -65 0 -65 0 -2 -342 -3 -343 -28 -9
c-21 -8 -35 -7 -55 5 l-27 15 -3 337 -2 337 -65 0 -66 0 1 -341z"/>
</g>
</svg>
