<?xml version="1.0" standalone="no"?>
<!DOCTYPE svg PUBLIC "-//W3C//DTD SVG 20010904//EN"
 "http://www.w3.org/TR/2001/REC-SVG-20010904/DTD/svg10.dtd">
<svg version="1.0" xmlns="http://www.w3.org/2000/svg"
 width="2750.000000pt" height="667.000000pt" viewBox="0 0 2750.000000 667.000000"
 preserveAspectRatio="xMidYMid meet">

<g transform="translate(0.000000,667.000000) scale(0.100000,-0.100000)"
fill="#000000" stroke="none">
<path d="M13705 5134 c-11 -3 -30 -7 -43 -10 -35 -7 -103 -74 -123 -122 -16
-37 -19 -70 -19 -207 0 -141 3 -168 20 -208 75 -169 316 -173 400 -6 18 34 20
59 20 218 0 152 -3 184 -17 211 -22 40 -60 81 -93 102 -27 16 -112 29 -145 22z"/>
<path d="M12896 4413 c-55 -9 -126 -65 -157 -125 -18 -35 -19 -64 -19 -489 l0
-451 27 -49 c32 -59 70 -90 140 -113 49 -16 55 -16 108 0 63 20 112 64 145
129 19 38 20 58 20 481 0 415 -1 444 -19 485 -42 95 -140 148 -245 132z"/>
<path d="M14501 4412 c-70 -8 -131 -63 -164 -150 -25 -62 -23 -319 2 -380 28
-70 90 -126 153 -139 103 -21 185 14 243 107 24 39 25 44 25 223 0 191 -4 216
-49 270 -43 52 -124 79 -210 69z"/>
<path d="M16552 4412 c-10 -6 -12 -198 -10 -923 l3 -914 115 0 115 0 5 375 5
375 280 5 c279 5 314 9 388 46 16 8 33 14 38 14 6 0 25 11 43 25 18 14 37 25
42 25 15 0 150 142 167 175 49 98 67 168 67 258 -1 64 -18 150 -41 202 -19 44
-92 146 -125 175 -34 29 -130 92 -164 105 -8 4 -23 11 -32 16 -10 5 -26 9 -36
9 -11 0 -34 8 -53 17 -30 16 -76 18 -414 21 -209 1 -386 -1 -393 -6z m745
-216 c166 -36 281 -178 270 -336 -3 -36 -8 -78 -12 -95 -15 -58 -104 -156
-178 -196 -40 -22 -56 -23 -307 -29 -146 -3 -271 -4 -277 -2 -10 3 -13 78 -13
331 0 180 3 331 7 334 12 13 445 7 510 -7z"/>
<path d="M20465 4410 c-4 -6 -5 -175 -4 -377 2 -272 -1 -368 -9 -371 -7 -2
-36 20 -66 48 -58 57 -158 119 -193 120 -12 0 -24 4 -27 8 -3 5 -44 15 -91 22
-103 16 -229 1 -311 -36 -28 -13 -56 -24 -62 -24 -7 0 -12 -4 -12 -8 0 -5 -17
-18 -37 -30 -75 -42 -233 -229 -233 -275 0 -7 -4 -17 -8 -22 -4 -6 -17 -35
-27 -65 -16 -45 -19 -82 -19 -205 0 -99 4 -160 13 -180 7 -16 15 -40 17 -52 2
-12 16 -44 30 -70 15 -27 33 -60 40 -74 14 -26 100 -118 144 -154 71 -57 131
-87 243 -120 68 -20 250 -17 302 5 17 7 41 17 55 22 14 6 32 14 40 19 8 5 30
16 49 26 19 9 58 41 88 70 74 74 82 71 85 -29 l3 -83 105 0 105 0 0 920 0 920
-107 3 c-67 2 -109 -1 -113 -8z m-295 -763 c53 -17 131 -69 178 -118 137 -141
159 -414 50 -600 -36 -60 -110 -126 -184 -164 -56 -29 -65 -30 -184 -30 -119
0 -128 1 -185 30 -112 56 -221 190 -240 295 -21 119 -15 252 15 325 30 71 46
98 85 139 74 77 168 127 260 140 45 6 165 -4 205 -17z"/>
<path d="M13670 4202 c-64 -31 -91 -55 -121 -106 l-29 -51 0 -710 0 -710 29
-51 c30 -52 58 -76 125 -106 52 -24 86 -23 150 8 61 29 88 54 116 110 19 37
20 61 20 749 0 688 -1 712 -20 749 -28 56 -55 81 -116 110 -62 30 -104 32
-154 8z"/>
<path d="M25093 4214 c-10 -4 -13 -53 -13 -195 l0 -189 -115 0 -116 0 3 -97 3
-98 110 -5 110 -5 6 -380 c4 -209 11 -398 16 -420 23 -92 99 -190 174 -223 88
-39 109 -44 220 -46 116 -3 173 4 192 23 7 7 2 27 -16 63 -14 29 -31 68 -39
86 -10 25 -18 32 -33 28 -98 -23 -181 -8 -227 41 -54 59 -59 95 -56 478 l3
350 163 3 162 2 0 100 0 100 -165 0 -165 0 -2 193 -3 192 -100 2 c-55 1 -106
-1 -112 -3z"/>
<path d="M4309 3852 c-68 -23 -139 -70 -175 -117 -51 -67 -67 -169 -40 -259
31 -101 99 -153 277 -210 124 -40 184 -69 199 -95 25 -47 0 -120 -50 -146 -38
-20 -133 -19 -176 1 -19 9 -58 38 -86 65 -123 115 -247 96 -209 -32 28 -92
168 -194 304 -221 114 -22 254 22 348 109 90 83 111 171 65 268 -53 112 -166
202 -288 230 -143 32 -208 76 -208 141 0 29 7 44 35 70 77 72 146 67 242 -17
61 -54 107 -68 152 -49 93 38 38 176 -96 242 -56 27 -78 32 -152 35 -63 2
-101 -2 -142 -15z"/>
<path d="M9034 3855 c-233 -63 -365 -247 -367 -510 -1 -283 187 -491 463 -511
190 -15 388 88 473 244 115 211 74 501 -93 655 -125 116 -316 165 -476 122z
m268 -215 c110 -42 153 -120 153 -280 0 -152 -37 -231 -133 -287 -38 -22 -61
-28 -133 -31 -97 -5 -133 4 -203 48 -38 24 -53 44 -79 98 -30 62 -32 75 -32
172 0 88 4 113 23 155 50 109 112 143 264 144 65 1 101 -4 140 -19z"/>
<path d="M18440 3861 c-14 -5 -44 -9 -67 -10 -23 -1 -45 -5 -48 -11 -3 -5 -15
-10 -27 -10 -11 0 -32 -6 -46 -14 -15 -8 -43 -21 -62 -29 -19 -9 -44 -24 -55
-34 -11 -10 -37 -31 -58 -47 -84 -64 -171 -203 -210 -336 -21 -72 -22 -279 -1
-328 8 -19 14 -43 14 -53 0 -11 4 -27 9 -37 5 -9 17 -35 27 -57 29 -62 85
-135 150 -195 64 -59 212 -140 256 -140 14 0 42 -7 61 -15 54 -22 232 -20 327
5 235 62 405 226 482 465 17 55 18 339 1 357 -7 6 -13 24 -13 38 0 14 -7 35
-15 46 -8 10 -15 27 -15 36 0 9 -3 18 -7 20 -5 2 -16 19 -26 39 -36 70 -179
205 -252 238 -16 7 -39 18 -49 23 -73 38 -315 69 -376 49z m229 -210 c196 -69
312 -238 311 -454 -1 -85 -19 -167 -51 -234 -29 -58 -119 -151 -174 -178 -22
-11 -48 -27 -59 -35 -27 -23 -279 -21 -327 1 -19 9 -47 23 -64 30 -38 18 -165
143 -165 164 0 8 -3 15 -8 15 -11 0 -32 68 -43 140 -6 36 -7 105 -4 154 5 72
12 102 40 160 52 110 149 196 265 237 62 21 218 22 279 0z"/>
<path d="M21450 3856 c-78 -14 -123 -27 -156 -44 -10 -5 -32 -16 -49 -23 -100
-45 -238 -187 -281 -289 -57 -136 -59 -147 -59 -300 0 -147 6 -178 53 -290 40
-94 183 -251 262 -287 19 -9 42 -22 50 -28 15 -11 34 -17 149 -50 73 -20 259
-20 308 0 19 8 46 15 59 15 12 0 26 5 29 10 3 6 16 10 28 10 12 0 39 11 59 25
20 14 41 25 45 25 17 0 142 128 178 182 36 56 39 78 8 78 -8 0 -29 7 -46 16
-56 29 -64 33 -98 39 -31 6 -36 3 -53 -29 -26 -48 -102 -122 -145 -141 -20 -9
-47 -22 -60 -28 -15 -7 -75 -12 -156 -12 -126 0 -134 1 -189 29 -69 35 -154
110 -181 160 -11 20 -23 36 -27 36 -5 0 -8 7 -8 15 0 8 -4 23 -9 33 -40 79
-41 299 0 374 5 10 9 27 9 38 0 11 4 20 8 20 4 0 15 12 25 28 48 79 130 142
241 187 53 21 196 20 261 -3 105 -36 184 -101 224 -183 13 -29 44 -39 56 -19
3 6 14 10 24 10 10 0 24 7 31 15 7 8 20 15 30 15 10 0 34 7 55 16 35 14 36 16
21 33 -9 10 -16 21 -16 25 0 21 -147 186 -166 186 -4 0 -15 6 -23 14 -27 24
-109 66 -128 66 -11 0 -23 4 -28 9 -24 22 -242 33 -335 17z"/>
<path d="M22755 3858 c-86 -16 -128 -30 -185 -61 -30 -16 -57 -32 -60 -36 -3
-3 -22 -19 -43 -34 -38 -28 -117 -125 -117 -143 0 -10 68 -44 86 -44 6 0 34
-11 62 -25 60 -29 62 -29 62 -11 0 21 85 103 127 121 21 9 53 23 71 31 47 20
210 19 259 -2 141 -61 200 -126 223 -246 16 -89 11 -102 -38 -93 -20 4 -42 11
-48 16 -57 47 -374 59 -504 20 -73 -21 -110 -36 -110 -43 0 -5 -7 -8 -15 -8
-43 0 -176 -127 -201 -190 -3 -8 -11 -26 -17 -39 -7 -14 -12 -68 -11 -130 1
-94 5 -113 29 -164 17 -36 48 -76 85 -110 66 -60 106 -81 225 -121 66 -21 231
-22 282 -1 19 8 42 15 50 15 51 0 205 109 224 157 6 18 15 23 32 21 20 -3 22
-9 24 -73 1 -38 2 -76 2 -83 1 -10 26 -12 109 -10 l107 3 3 394 c1 227 -2 414
-7 440 -6 25 -13 60 -16 76 -7 30 -15 52 -44 115 -21 45 -144 166 -190 187
-20 8 -54 24 -76 34 -88 40 -268 58 -380 37z m380 -685 c63 -23 103 -50 107
-71 6 -29 -19 -120 -46 -166 -34 -58 -125 -138 -195 -172 -51 -26 -66 -28
-176 -28 -117 -1 -122 0 -175 30 -30 18 -68 48 -84 67 -25 31 -29 45 -29 100
0 40 5 77 16 99 35 75 127 140 222 159 73 14 304 3 360 -18z"/>
<path d="M24095 3858 c-179 -34 -321 -116 -369 -214 -10 -22 -22 -47 -27 -56
-13 -26 -11 -142 4 -190 12 -43 117 -158 142 -158 7 0 18 -7 25 -15 7 -8 21
-15 31 -15 11 0 19 -4 19 -10 0 -5 11 -10 24 -10 13 0 29 -7 36 -15 7 -8 22
-15 33 -15 11 0 38 -5 61 -11 89 -23 153 -39 206 -50 92 -20 142 -42 182 -83
36 -37 38 -41 38 -105 0 -66 -1 -68 -42 -107 -50 -46 -73 -58 -148 -75 -99
-22 -220 -5 -302 43 -49 29 -124 108 -139 146 -12 32 -32 36 -76 17 -21 -10
-51 -23 -68 -30 -16 -8 -38 -16 -47 -19 -28 -9 -21 -43 21 -99 64 -88 212
-207 255 -207 8 0 18 -4 21 -10 3 -5 16 -10 28 -10 12 0 40 -7 62 -15 47 -17
230 -20 290 -4 22 5 54 14 71 18 111 29 242 134 284 228 28 62 31 188 5 248
-33 76 -138 185 -178 185 -7 0 -18 5 -25 12 -15 15 -80 38 -108 38 -12 0 -35
7 -50 15 -16 8 -41 15 -55 15 -14 0 -39 4 -55 9 -16 5 -65 17 -109 26 -156 34
-215 81 -215 172 0 46 4 54 41 92 23 22 49 41 58 41 9 0 27 8 40 17 19 13 48
16 140 16 110 0 119 -2 181 -32 45 -22 77 -47 104 -81 l38 -49 37 16 c20 9 48
22 63 29 14 8 32 14 40 14 8 0 22 6 32 13 17 12 16 16 -13 60 -35 50 -128 137
-148 137 -7 0 -13 5 -13 10 0 6 -9 10 -19 10 -11 0 -22 4 -26 10 -13 21 -200
60 -280 58 -27 0 -72 -5 -100 -10z"/>
<path d="M26265 3858 c-33 -5 -68 -14 -77 -19 -10 -5 -26 -9 -36 -9 -10 0 -27
-7 -38 -15 -10 -8 -24 -15 -31 -15 -25 0 -141 -91 -167 -131 -117 -175 -47
-362 174 -464 19 -9 44 -22 55 -28 11 -6 38 -14 60 -19 186 -41 219 -49 251
-59 17 -5 42 -9 56 -9 14 0 31 -7 38 -15 7 -8 20 -15 29 -15 28 0 88 -71 95
-112 12 -66 -3 -108 -54 -158 -40 -38 -58 -47 -111 -58 -190 -39 -353 18 -444
155 -20 30 -42 56 -49 59 -7 3 -43 -9 -80 -26 -37 -16 -74 -30 -81 -30 -8 0
-16 -9 -20 -19 -9 -29 83 -150 158 -208 120 -93 241 -133 402 -133 111 0 219
23 285 61 8 5 29 15 45 24 58 30 133 111 162 175 21 48 33 128 23 156 -6 14
-10 36 -10 49 0 37 -49 122 -95 163 -23 20 -68 50 -101 66 -32 16 -67 33 -76
37 -10 5 -33 9 -51 9 -18 0 -38 5 -43 10 -6 6 -35 15 -65 21 -94 17 -132 26
-194 44 -33 9 -70 19 -83 22 -25 6 -91 78 -93 102 -5 63 19 121 59 149 67 45
110 56 227 55 105 0 118 -2 170 -28 48 -25 84 -57 136 -123 8 -10 15 -10 37 2
40 21 95 44 116 48 10 1 23 10 29 19 23 37 -147 209 -208 209 -7 0 -18 6 -24
14 -31 37 -258 64 -376 44z"/>
<path d="M2620 3335 l0 -505 238 0 c263 0 360 10 379 36 17 23 17 125 0 148
-17 23 -113 35 -274 36 l-123 0 0 273 c-1 149 -5 319 -10 377 -11 133 -17 140
-131 140 l-79 0 0 -505z"/>
<path d="M3542 3367 c3 -433 5 -475 21 -500 13 -20 26 -27 50 -27 88 1 104 26
118 188 10 129 29 793 22 805 -2 4 -51 7 -109 7 l-105 0 3 -473z"/>
<path d="M5130 3834 c-112 -13 -130 -25 -130 -83 0 -71 9 -76 178 -79 l150 -3
4 -382 c3 -259 8 -391 15 -409 16 -35 47 -51 88 -44 59 11 60 19 63 449 l3
387 137 0 c153 0 181 8 193 55 13 46 0 75 -40 93 -30 13 -88 16 -331 18 -162
1 -311 0 -330 -2z"/>
<path d="M6085 3513 c4 -181 10 -402 14 -493 l6 -165 110 -6 c61 -4 188 -7
283 -8 207 -1 212 1 212 97 0 32 -6 66 -13 76 -16 22 -112 35 -252 36 -113 0
-139 11 -150 60 -10 48 4 109 28 122 13 7 82 15 164 18 169 7 175 10 181 97 3
47 0 63 -16 83 -19 24 -26 25 -163 31 -80 3 -154 11 -166 17 -44 24 -39 163 8
177 10 4 91 10 178 13 183 9 201 16 201 82 0 78 -53 90 -399 90 l-233 0 7
-327z"/>
<path d="M7042 3367 c3 -433 5 -475 21 -500 35 -54 138 -27 156 41 14 52 28
185 42 407 6 105 12 191 14 193 1 1 75 -113 164 -253 173 -272 237 -360 287
-394 33 -23 84 -27 116 -10 50 27 62 131 74 672 l7 317 -76 0 c-64 0 -80 -3
-102 -22 -23 -20 -27 -35 -36 -118 -5 -52 -13 -183 -17 -290 l-7 -195 -79 135
c-204 349 -287 461 -355 480 -20 5 -76 10 -124 10 l-88 0 3 -473z"/>
<path d="M10002 3373 c2 -340 7 -476 15 -496 15 -33 53 -52 88 -43 45 11 56
57 66 280 6 111 13 253 17 316 l7 115 119 -190 c255 -405 334 -506 407 -520
55 -10 86 8 100 57 15 50 19 754 6 851 -10 67 -33 97 -76 97 -56 0 -71 -25
-81 -130 -5 -52 -10 -156 -10 -230 -1 -148 -9 -211 -27 -217 -16 -6 -86 90
-214 289 -121 189 -184 263 -239 278 -19 5 -68 10 -108 10 l-73 0 3 -467z"/>
<path d="M12105 3671 c-49 -8 -106 -49 -137 -99 -22 -35 -23 -46 -23 -237 0
-199 0 -200 26 -240 15 -22 45 -53 67 -69 36 -25 51 -28 116 -29 65 0 81 3
115 26 89 59 111 122 111 312 0 69 -5 147 -11 173 -29 119 -136 184 -264 163z"/>
<path d="M15220 3648 c-41 -26 -47 -32 -80 -78 -25 -35 -25 -38 -25 -235 0
-197 0 -200 25 -235 53 -74 86 -92 175 -97 60 -4 76 -1 115 20 25 14 58 44 75
68 l30 44 0 200 c0 200 0 200 -27 241 -41 63 -102 94 -185 94 -53 0 -76 -5
-103 -22z"/>
<path d="M14475 3479 c-66 -27 -116 -77 -138 -137 -15 -44 -17 -95 -17 -471 0
-369 2 -426 17 -463 24 -62 50 -96 96 -125 33 -21 52 -25 112 -25 60 0 79 4
111 25 45 29 64 50 87 97 15 29 17 84 17 492 0 436 -1 461 -20 497 -50 99
-170 149 -265 110z"/>
<path d="M12882 2927 c-55 -15 -117 -67 -142 -119 -18 -37 -20 -62 -20 -216 0
-146 3 -179 17 -205 50 -90 111 -129 203 -129 70 -1 97 10 153 61 56 51 67 96
67 277 0 187 -7 212 -76 280 -28 28 -55 44 -81 48 -21 4 -47 9 -58 11 -11 2
-39 -2 -63 -8z"/>
<path d="M13664 2203 c-36 -7 -102 -71 -124 -120 -17 -40 -20 -67 -20 -208 0
-181 8 -215 63 -273 49 -52 83 -65 162 -65 88 0 130 23 179 98 l36 53 0 182
c0 158 -2 185 -19 218 -26 50 -80 100 -122 112 -33 10 -113 11 -155 3z"/>
</g>
</svg>
