<?xml version="1.0" standalone="no"?>
<!DOCTYPE svg PUBLIC "-//W3C//DTD SVG 20010904//EN"
 "http://www.w3.org/TR/2001/REC-SVG-20010904/DTD/svg10.dtd">
<svg version="1.0" xmlns="http://www.w3.org/2000/svg"
 width="853.000000pt" height="853.000000pt" viewBox="0 0 853.000000 853.000000"
 preserveAspectRatio="xMidYMid meet">
<metadata>
Created by potrace 1.11, written by Peter Selinger 2001-2013
</metadata>
<g transform="translate(0.000000,853.000000) scale(0.100000,-0.100000)"
fill="#000000" stroke="none">
<path d="M1505 6831 l-470 -6 -46 -27 c-54 -32 -110 -91 -141 -150 -21 -42
-22 -55 -30 -478 -5 -239 -7 -1164 -6 -2055 4 -1872 -8 -1677 112 -1793 93
-90 125 -101 344 -109 l162 -6 0 90 0 91 -167 3 c-186 4 -224 15 -252 73 -26
54 -33 618 -29 2361 4 1459 6 1716 19 1750 11 32 24 45 64 65 l50 25 3147 3
3148 4 42 -21 c24 -12 57 -34 74 -50 l31 -28 5 -1749 c3 -962 2 -1879 -1
-2039 -7 -319 -6 -315 -73 -366 -31 -23 -42 -24 -203 -29 l-170 -5 0 -85 0
-85 109 -3 c128 -3 272 19 330 51 22 12 65 52 96 89 l57 67 6 563 c10 819 8
3296 -3 3484 -5 97 -14 175 -23 195 -17 41 -99 120 -154 147 -39 20 -54 21
-2799 25 -1517 2 -2970 2 -3229 -2z"/>
<path d="M5987 5318 c-54 -15 -140 -97 -167 -160 -26 -61 -24 -151 4 -207 69
-133 225 -197 342 -140 92 44 171 172 161 259 -11 90 -79 190 -159 231 -45 23
-131 32 -181 17z"/>
<path d="M2281 5164 c-42 -35 -48 -69 -56 -295 l-7 -196 -212 -6 c-117 -3
-224 -11 -238 -16 -31 -11 -67 -68 -74 -113 -4 -27 2 -42 33 -83 l39 -50 225
-3 226 -2 6 -158 c4 -86 7 -189 7 -227 0 -69 1 -72 39 -109 33 -32 47 -39 81
-39 54 0 107 30 120 68 14 36 29 233 30 367 l0 97 226 3 226 3 28 32 c58 65
46 150 -27 199 -29 19 -51 22 -240 28 -114 4 -209 8 -209 9 -1 1 -5 85 -9 187
-8 213 -14 247 -56 295 -27 31 -37 35 -79 35 -37 0 -55 -6 -79 -26z"/>
<path d="M5470 4791 c-75 -24 -146 -88 -175 -157 -32 -78 -13 -210 41 -281 43
-57 104 -85 187 -86 95 -1 136 14 190 72 66 70 81 105 81 181 0 105 -59 207
-147 252 -44 22 -137 32 -177 19z"/>
<path d="M6472 4764 c-58 -29 -90 -65 -123 -140 -42 -93 -20 -190 65 -282 56
-61 87 -74 172 -75 60 0 81 4 125 27 73 38 82 48 115 119 50 110 35 209 -48
302 -48 56 -95 75 -181 75 -59 0 -83 -5 -125 -26z"/>
<path d="M3863 4624 c-67 -73 -68 -120 0 -191 l31 -33 312 0 c172 0 324 4 337
9 29 11 57 75 57 128 0 30 -8 44 -49 84 l-48 49 -298 0 -299 0 -43 -46z"/>
<path d="M5953 4246 c-82 -37 -153 -155 -153 -256 0 -68 50 -163 110 -206 25
-18 53 -33 62 -33 9 -1 20 -5 23 -11 20 -32 179 8 239 61 40 35 96 145 96 188
0 65 -73 221 -103 221 -6 0 -21 10 -35 23 -20 19 -36 22 -115 25 -63 1 -102
-2 -124 -12z"/>
<path d="M6635 2786 c-82 -37 -139 -141 -139 -256 -1 -125 25 -172 216 -384
62 -69 91 -110 99 -138 20 -76 -9 -148 -60 -148 -58 0 -101 62 -101 148 l0 32
-81 0 -82 0 6 -96 c5 -85 9 -101 38 -150 47 -77 94 -99 214 -99 81 0 95 3 138
28 30 18 60 47 78 75 27 43 29 52 29 152 0 59 -5 122 -12 141 -18 53 -62 112
-162 217 -135 142 -136 144 -136 218 0 76 20 104 74 104 42 0 76 -38 76 -84 0
-48 15 -56 98 -56 l75 0 -7 77 c-10 119 -66 195 -165 223 -51 14 -160 12 -196
-4z"/>
<path d="M1570 2245 l0 -546 83 3 82 3 5 300 c3 165 6 295 8 288 1 -6 7 -47
12 -90 6 -43 17 -109 25 -148 13 -65 29 -169 44 -290 l6 -50 65 -3 c96 -5 106
0 119 55 6 27 17 100 26 163 8 63 19 144 25 180 6 36 13 88 18 115 4 32 9 -53
12 -235 l5 -285 95 0 95 0 0 540 0 540 -126 3 c-111 2 -127 0 -133 -14 -4 -9
-11 -60 -16 -113 -5 -53 -14 -116 -20 -141 -5 -25 -16 -99 -25 -165 -21 -165
-37 -255 -45 -255 -4 0 -15 53 -24 118 -10 64 -24 145 -32 180 -8 35 -14 78
-14 97 0 19 -6 62 -14 97 -8 35 -18 91 -22 124 l-6 61 -67 7 c-36 3 -92 6
-123 6 l-58 0 0 -545z"/>
<path d="M2515 2770 c-9 -30 -45 -255 -55 -347 -4 -45 -11 -86 -14 -91 -5 -9
-35 -187 -56 -334 -4 -31 -10 -60 -13 -65 -3 -5 -11 -56 -17 -113 -12 -118
-11 -120 60 -119 78 1 83 6 101 100 l15 84 101 3 100 3 7 -66 c13 -128 11
-125 70 -125 28 0 68 3 89 7 38 6 39 7 34 42 -10 84 -89 569 -97 601 -5 19
-12 67 -15 105 -4 39 -11 84 -16 100 -5 17 -13 64 -19 105 -5 41 -13 87 -16
103 l-6 27 -123 0 c-114 0 -124 -2 -130 -20z m130 -269 c-3 -6 1 -43 10 -83 8
-40 15 -89 15 -109 0 -20 9 -80 20 -133 11 -53 18 -101 15 -107 -4 -5 -38 -9
-76 -9 l-70 0 6 38 c4 20 15 81 26 134 10 53 19 115 19 137 0 54 19 141 31
141 6 0 8 -4 4 -9z"/>
<path d="M3010 2245 l0 -545 95 0 95 0 0 545 0 545 -95 0 -95 0 0 -545z"/>
<path d="M3302 2248 l3 -543 87 -3 88 -3 2 338 c2 186 6 325 11 308 4 -16 11
-46 16 -65 5 -19 13 -48 19 -65 6 -16 15 -50 22 -75 32 -129 99 -378 108 -401
13 -32 36 -39 125 -39 l67 0 0 545 0 545 -80 0 -80 0 -1 -267 c0 -148 -4 -276
-7 -286 -7 -17 -123 397 -138 491 -4 26 -14 47 -25 52 -10 6 -63 10 -118 10
l-101 0 2 -542z"/>
<path d="M4130 2717 c0 -99 11 -109 112 -106 l73 2 3 -456 2 -457 85 0 85 0 2
457 3 457 88 -3 87 -3 0 91 0 91 -270 0 -270 0 0 -73z"/>
<path d="M4730 2245 l0 -545 235 0 235 0 0 85 0 85 -145 0 -145 0 0 150 0 150
120 0 121 0 -3 83 -3 82 -117 3 -118 3 0 137 0 137 145 -3 145 -4 0 91 0 91
-235 0 -235 0 0 -545z"/>
<path d="M5290 2246 l0 -547 88 3 87 3 3 213 2 212 49 0 c33 0 56 -6 72 -19
22 -18 24 -27 31 -202 5 -101 12 -187 18 -193 5 -5 45 -11 90 -14 l80 -5 0
175 c0 199 -10 249 -64 320 l-35 45 32 31 c42 41 67 125 67 223 0 93 -21 165
-63 221 -42 55 -75 64 -291 73 l-166 7 0 -546z m308 348 c21 -14 22 -21 22
-129 0 -141 -8 -155 -95 -155 l-55 0 0 155 0 156 53 -7 c28 -3 62 -13 75 -20z"/>
<path d="M5903 2338 c3 -312 9 -465 17 -493 16 -52 50 -97 97 -127 33 -20 50
-23 128 -22 76 0 98 4 140 25 65 33 102 86 115 164 5 33 10 250 10 483 l0 423
-87 -3 -88 -3 -3 -450 c-2 -409 -4 -451 -19 -462 -24 -18 -77 -16 -102 5 -21
17 -22 23 -28 465 l-6 447 -90 0 -89 0 5 -452z"/>
</g>
</svg>
